HIERARCHY
ROOT Hips
{
	OFFSET	0.00	0.00	0.00
	CHANNELS 6 Xposition Yposition Zposition Zrotation Xrotation Yrotation
	JOINT LeftUpLeg
	{
		OFFSET	 0.126116	-0.065224	 0.014019
		CHANNELS 3 Zrotation Xrotation Yrotation
		JOINT LeftLeg
		{
			OFFSET	 0.000000	 0.569914	 0.000000
			CHANNELS 3 Zrotation Xrotation Yrotation
			JOINT LeftFoot
			{
				OFFSET	 0.000000	 0.544423	 0.000000
				CHANNELS 3 Zrotation Xrotation Yrotation
				JOINT LeftToeBase
				{
					OFFSET	 0.000000	 0.207117	 0.000000
					CHANNELS 3 Zrotation Xrotation Yrotation
					End Site
					{
						OFFSET	 0.000000	 0.207117	 0.000000
					}
				}
			}
		}
	}
	JOINT RightUpLeg
	{
		OFFSET	-0.124023	-0.065224	 0.008373
		CHANNELS 3 Zrotation Xrotation Yrotation
		JOINT RightLeg
		{
			OFFSET	 0.000000	 0.570047	 0.000000
			CHANNELS 3 Zrotation Xrotation Yrotation
			JOINT RightFoot
			{
				OFFSET	 0.000000	 0.544354	 0.000000
				CHANNELS 3 Zrotation Xrotation Yrotation
				JOINT RightToeBase
				{
					OFFSET	 0.000000	 0.207540	 0.000000
					CHANNELS 3 Zrotation Xrotation Yrotation
					End Site
					{
						OFFSET	 0.000000	 0.207540	 0.000000
					}
				}
			}
		}
	}
	JOINT Spine
	{
		OFFSET	 0.000184	 0.117403	 0.007763
		CHANNELS 3 Zrotation Xrotation Yrotation
		JOINT Spine1
		{
			OFFSET	 0.000000	 0.137269	 0.000000
			CHANNELS 3 Zrotation Xrotation Yrotation
			JOINT Spine2
			{
				OFFSET	 0.000000	 0.156879	 0.000000
				CHANNELS 3 Zrotation Xrotation Yrotation
				JOINT LeftShoulder
				{
					OFFSET	 0.080501	 0.160143	 0.002496
					CHANNELS 3 Zrotation Xrotation Yrotation
					JOINT LeftArm
					{
						OFFSET	 0.000000	 0.164363	 0.000000
						CHANNELS 3 Zrotation Xrotation Yrotation
						JOINT LeftForeArm
						{
							OFFSET	 0.000000	 0.364576	 0.000000
							CHANNELS 3 Zrotation Xrotation Yrotation
							JOINT LeftHand
							{
								OFFSET	 0.000000	 0.360812	 0.000000
								CHANNELS 3 Zrotation Xrotation Yrotation
								JOINT LeftHandIndex1
								{
									OFFSET	 0.000000	 0.086006	 0.000000
									CHANNELS 3 Zrotation Xrotation Yrotation
									JOINT LeftHandIndex2
									{
										OFFSET	 0.000000	 0.047237	 0.000000
										CHANNELS 3 Zrotation Xrotation Yrotation
										JOINT LeftHandIndex3
										{
											OFFSET	-0.004284	 0.038165	 0.000551
											CHANNELS 3 Zrotation Xrotation Yrotation
											End Site
											{
												OFFSET	-0.004284	 0.038165	 0.000551
											}
										}
									}
								}
							}
						}
					}
				}
				JOINT Neck
				{
					OFFSET	 0.000000	 0.176489	 0.000000
					CHANNELS 3 Zrotation Xrotation Yrotation
					JOINT Head
					{
						OFFSET	 0.000000	 0.077941	 0.001747
						CHANNELS 3 Zrotation Xrotation Yrotation
						End Site
						{
							OFFSET	 0.000000	 0.077941	 0.001747
						}
					}
				}
				JOINT RightShoulder
				{
					OFFSET	-0.080363	 0.159706	-0.000306
					CHANNELS 3 Zrotation Xrotation Yrotation
					JOINT RightArm
					{
						OFFSET	 0.000000	 0.164196	 0.000000
						CHANNELS 3 Zrotation Xrotation Yrotation
						JOINT RightForeArm
						{
							OFFSET	 0.000000	 0.365611	 0.000000
							CHANNELS 3 Zrotation Xrotation Yrotation
							JOINT RightHand
							{
								OFFSET	 0.000000	 0.360648	 0.000000
								CHANNELS 3 Zrotation Xrotation Yrotation
								JOINT RightHandIndex1
								{
									OFFSET	 0.000000	 0.069977	 0.000000
									CHANNELS 3 Zrotation Xrotation Yrotation
									JOINT RightHandIndex2
									{
										OFFSET	 0.000000	 0.052305	 0.000000
										CHANNELS 3 Zrotation Xrotation Yrotation
										JOINT RightHandIndex3
										{
											OFFSET	 0.009002	 0.042196	 0.000782
											CHANNELS 3 Zrotation Xrotation Yrotation
											End Site
											{
												OFFSET	 0.009002	 0.042196	 0.000782
											}
										}
									}
								}
							}
						}
					}
				}
			}
		}
	}
}
MOTION
Frames:    11
Frame Time: 0.03333334
-0.005666	 1.233130	 0.011460	 1.614809	 0.141865	 172.313400	-160.738200	 13.251800	-26.807630	 5.574283	-20.045050	 3.116556	-12.033330	 63.116800	 4.098658	 1.162021	 26.689190	-2.659656	 173.594600	 11.086810	 18.357660	-2.576593	-30.683130	 7.785081	 13.594210	 77.792330	-9.796871	-1.288988	 28.372420	 2.710516	 2.277143	 6.229239	 4.348704	-1.568163	 3.075559	 2.324305	 3.705712	-2.436660	-3.837169	-113.195400	 6.483906	 92.935020	 20.277080	 47.102510	 4.429576	 4.917010	-0.254134	-0.072887	 21.045240	 13.032370	 19.508170	 0.561221	 8.652132	-0.355721	-5.949625	 13.577870	 1.517983	 4.985973	-3.513278	-0.334721	 3.185829	-6.825668	 0.871020	-1.240632	-5.446447	 2.352187	 123.459200	 10.373570	-96.383440	-7.253605	 40.384860	-2.023005	-5.045354	-0.198341	 0.049778	 1.643625	 4.396417	-12.173300	-2.307763	 4.845274	 0.896267	 12.530450	 22.792650	-5.133905	-8.499889	 13.015050	-0.519998
-0.005772	 1.233102	 0.011642	 1.596896	-0.071005	 172.304100	-160.717400	 13.499600	-26.817670	 5.589142	-20.094720	 3.120598	-11.906790	 63.134720	 3.947865	 1.162020	 26.689170	-2.659656	 173.590400	 11.341730	 18.374140	-2.580423	-30.720650	 7.782574	 13.583080	 77.786570	-9.785178	-1.288987	 28.372410	 2.710515	 2.274746	 6.076612	 4.329417	-1.508517	 2.746180	 2.272814	 3.654634	-2.105915	-3.761680	-113.194900	 6.483989	 92.935100	 20.254950	 47.257060	 4.443251	 4.882069	-0.252333	-0.073073	 20.850580	 12.967880	 19.459850	 0.561625	 8.650876	-0.355720	-5.949620	 13.578150	 1.518013	 4.985993	-3.512831	-0.334710	 3.185814	-6.825680	 0.871105	-1.242585	-5.412055	 2.367773	 123.458800	 10.373630	-96.383400	-7.257002	 40.506900	-2.023543	-5.002810	-0.196617	 0.049996	 1.802127	 4.359637	-12.375540	-2.307909	 4.845730	 0.896261	 12.530530	 22.793860	-5.134196	-8.499898	 13.016040	-0.520060
-0.005927	 1.233098	 0.011860	 1.578643	-0.330798	 172.283500	-160.688600	 13.793510	-26.833710	 5.604048	-20.147350	 3.120429	-11.748220	 63.154110	 3.760423	 1.162014	 26.689090	-2.659654	 173.589700	 11.646290	 18.391070	-2.583435	-30.750850	 7.778186	 13.566790	 77.769920	-9.770228	-1.288982	 28.372330	 2.710513	 2.270790	 5.890094	 4.273189	-1.418600	 2.348930	 2.198799	 3.565826	-1.707409	-3.610525	-113.192200	 6.484357	 92.935360	 20.218800	 47.443560	 4.470000	 4.837470	-0.250039	-0.073204	 20.610680	 12.842560	 19.282650	 0.563686	 8.644483	-0.355712	-5.949594	 13.579590	 1.518168	 4.986097	-3.510548	-0.334655	 3.185739	-6.825735	 0.871539	-1.245289	-5.369586	 2.404212	 123.457000	 10.373910	-96.383200	-7.255612	 40.672490	-2.028314	-4.948936	-0.194568	 0.050136	 1.966691	 4.292394	-12.742170	-2.308655	 4.848065	 0.896230	 12.530970	 22.800010	-5.135680	-8.499944	 13.021080	-0.520378
-0.006067	 1.233109	 0.012031	 1.564778	-0.533867	 172.256900	-160.664000	 14.017540	-26.852050	 5.613612	-20.185820	 3.113025	-11.627730	 63.168760	 3.618428	 1.162002	 26.688920	-2.659649	 173.590100	 11.882410	 18.399290	-2.584911	-30.766970	 7.771724	 13.540940	 77.751540	-9.745861	-1.288970	 28.372180	 2.710508	 2.265717	 5.744648	 4.204005	-1.340979	 2.042429	 2.134593	 3.477648	-1.402456	-3.442271	-113.186800	 6.485099	 92.935910	 20.180880	 47.588820	 4.501269	 4.801428	-0.248184	-0.073450	 20.424170	 12.706460	 19.053420	 0.567843	 8.631595	-0.355697	-5.949540	 13.582490	 1.518478	 4.986307	-3.505944	-0.334544	 3.185587	-6.825849	 0.872414	-1.247722	-5.336967	 2.449158	 123.453400	 10.374500	-96.382840	-7.245992	 40.819230	-2.037261	-4.908705	-0.193025	 0.050258	 2.067943	 4.217890	-13.119380	-2.310157	 4.852771	 0.896169	 12.531860	 22.812420	-5.138673	-8.500034	 13.031240	-0.521019
-0.006250	 1.233116	 0.012235	 1.545079	-0.771937	 172.207800	-160.633800	 14.275390	-26.885940	 5.623360	-20.234940	 3.090441	-11.503250	 63.188330	 3.470665	 1.161972	 26.688520	-2.659637	 173.587700	 12.162550	 18.398810	-2.586434	-30.786050	 7.757088	 13.477920	 77.728030	-9.683101	-1.288941	 28.371800	 2.710496	 2.256582	 5.572601	 4.095186	-1.254132	 1.692357	 2.056553	 3.357574	-1.058145	-3.182419	-113.173900	 6.486938	 92.937290	 20.118090	 47.758960	 4.560147	 4.761661	-0.246128	-0.073608	 20.210940	 12.500270	 18.682640	 0.577919	 8.600345	-0.355655	-5.949412	 13.589510	 1.519231	 4.986815	-3.494784	-0.334274	 3.185219	-6.826122	 0.874534	-1.251046	-5.301360	 2.525402	 123.444700	 10.375910	-96.381940	-7.224699	 41.018340	-2.052184	-4.860413	-0.191051	 0.050391	 2.143146	 4.098994	-13.657270	-2.313799	 4.864179	 0.896021	 12.534030	 22.842520	-5.145931	-8.500253	 13.055870	-0.522574
-0.006472	 1.233112	 0.012463	 1.517725	-1.025099	 172.121700	-160.598200	 14.541750	-26.945300	 5.631636	-20.297110	 3.040226	-11.403960	 63.214890	 3.349779	 1.161911	 26.687700	-2.659613	 173.579300	 12.471040	 18.379220	-2.588590	-30.815720	 7.727626	 13.353420	 77.703760	-9.555205	-1.288883	 28.371040	 2.710471	 2.245415	 5.388547	 3.954258	-1.184638	 1.338967	 1.982102	 3.218501	-0.720812	-2.827774	-113.147300	 6.490656	 92.940090	 20.031820	 47.941870	 4.653451	 4.718065	-0.243895	-0.073770	 20.003630	 12.225120	 18.183440	 0.598533	 8.536402	-0.355552	-5.949148	 13.603880	 1.520771	 4.987855	-3.471950	-0.333723	 3.184465	-6.826683	 0.878872	-1.255290	-5.270234	 2.640837	 123.427000	 10.378810	-96.380070	-7.183438	 41.268680	-2.073619	-4.808614	-0.189042	 0.050652	 2.152226	 3.927818	-14.317880	-2.321251	 4.887521	 0.895721	 12.538470	 22.904090	-5.160790	-8.500699	 13.106270	-0.525755
-0.006699	 1.233090	 0.012682	 1.486238	-1.247532	 172.004300	-160.561500	 14.766960	-27.114720	 5.669005	-20.356790	 3.056363	-11.360560	 63.245740	 3.291428	 1.161821	 26.686470	-2.659577	 173.565700	 12.754250	 18.337940	-2.590932	-30.851340	 7.684368	 13.167110	 77.682400	-9.361274	-1.288797	 28.369900	 2.710435	 2.237800	 5.225691	 3.818939	-1.162791	 1.051378	 1.936865	 3.096811	-0.459342	-2.448112	-113.108000	 6.496182	 92.944210	 19.936750	 48.106530	 4.769215	 4.680755	-0.241954	-0.073959	 19.848590	 11.937800	 17.680640	 0.629111	 8.441539	-0.355356	-5.948759	 13.625190	 1.523057	 4.989398	-3.438076	-0.332905	 3.183348	-6.827514	 0.885307	-1.259781	-5.252341	 2.777684	 123.400600	 10.383110	-96.377330	-7.125748	 41.527950	-2.097760	-4.763814	-0.187287	 0.050830	 2.081362	 3.733083	-14.938080	-2.332306	 4.922148	 0.895280	 12.545090	 22.995430	-5.182858	-8.501355	 13.181040	-0.530475
-0.006938	 1.233035	 0.012846	 1.473384	-1.376906	 171.850700	-160.507100	 14.891300	-27.276930	 5.696582	-20.447360	 3.007907	-11.429670	 63.293650	 3.356808	 1.161695	 26.684780	-2.659527	 173.566400	 12.933160	 18.266960	-2.591483	-30.874340	 7.625789	 12.914800	 77.660120	-9.098836	-1.288677	 28.368330	 2.710384	 2.241262	 5.158774	 3.643098	-1.142054	 0.847644	 1.901255	 2.944581	-0.252407	-1.964965	-113.053400	 6.503841	 92.949960	 19.928150	 48.152520	 4.829173	 4.660717	-0.240907	-0.074038	 19.670680	 11.685240	 16.982040	 0.671473	 8.310076	-0.355000	-5.948221	 13.654720	 1.526224	 4.991535	-3.391139	-0.331774	 3.181799	-6.828667	 0.894224	-1.265309	-5.241379	 2.958352	 123.364000	 10.389070	-96.373490	-7.134974	 41.748190	-2.062489	-4.740886	-0.186363	 0.050916	 1.980468	 3.556296	-15.685950	-2.347625	 4.970129	 0.894681	 12.554340	 23.122010	-5.213480	-8.502255	 13.284650	-0.537017
-0.007053	 1.233023	 0.012822	 1.502161	-1.370026	 171.852500	-160.479500	 14.904300	-27.270270	 5.711152	-20.495140	 3.016618	-11.430560	 63.320720	 3.353951	 1.161703	 26.684890	-2.659530	 173.594600	 12.906190	 18.272140	-2.588292	-30.842150	 7.631046	 12.955010	 77.642500	-9.144828	-1.288684	 28.368420	 2.710387	 2.218850	 5.192780	 3.376571	-0.908358	 0.766886	 1.753902	 2.699672	-0.118812	-1.552710	-113.056800	 6.503384	 92.949610	 19.971360	 48.059070	 4.779577	 4.661170	-0.240959	-0.073956	 19.473020	 11.491620	 16.061310	 0.668835	 8.318264	-0.355025	-5.948254	 13.652880	 1.526027	 4.991402	-3.394061	-0.331844	 3.181896	-6.828595	 0.893669	-1.268239	-5.212754	 3.057723	 123.366200	 10.388700	-96.373730	-7.225330	 41.797210	-2.010416	-4.739309	-0.186362	 0.050831	 1.996946	 3.498618	-16.670950	-2.346671	 4.967141	 0.894718	 12.553760	 23.114120	-5.211571	-8.502200	 13.278200	-0.536609
-0.007090	 1.233081	 0.012674	 1.555214	-1.328498	 172.029400	-160.488800	 14.917660	-27.001450	 5.684556	-20.496570	 3.020872	-11.255610	 63.319000	 3.163417	 1.161868	 26.687110	-2.659595	 173.638600	 12.787650	 18.376700	-2.582540	-30.762950	 7.710533	 13.340130	 77.623960	-9.554272	-1.288842	 28.370490	 2.710454	 2.149680	 5.230304	 2.971968	-0.406963	 0.709508	 1.448888	 2.316862	 0.014658	-1.155214	-113.128400	 6.493306	 92.942060	 19.966030	 47.930780	 4.688561	 4.664379	-0.241113	-0.073997	 19.235610	 11.228240	 14.802900	 0.613213	 8.490865	-0.355464	-5.948961	 13.614110	 1.521869	 4.988596	-3.455688	-0.333330	 3.183929	-6.827083	 0.881961	-1.268493	-5.155735	 3.077693	 123.414300	 10.380870	-96.378760	-7.330846	 41.758750	-1.999363	-4.738826	-0.186322	 0.050859	 2.122828	 3.487721	-18.095960	-2.326558	 4.904143	 0.895508	 12.541640	 22.947930	-5.171379	-8.501017	 13.142170	-0.528021
-0.007219	 1.233075	 0.012662	 1.578257	-1.322238	 172.010600	-160.466000	 14.926370	-27.010340	 5.696987	-20.542160	 3.018263	-11.261150	 63.344640	 3.170819	 1.161860	 26.687000	-2.659592	 173.672100	 12.774660	 18.373060	-2.579817	-30.737530	 7.708189	 13.332780	 77.607030	-9.563791	-1.288834	 28.370390	 2.710451	 2.132245	 5.247958	 2.558935	-0.002541	 0.669750	 1.196944	 1.994948	 0.077865	-0.738885	-113.124900	 6.493809	 92.942440	 19.952020	 47.914170	 4.692824	 4.666565	-0.241207	-0.073986	 19.096630	 10.917700	 13.665760	 0.615922	 8.482456	-0.355447	-5.948927	 13.616000	 1.522071	 4.988733	-3.452687	-0.333258	 3.183830	-6.827156	 0.882532	-1.271053	-5.141154	 3.186308	 123.411900	 10.381260	-96.378500	-7.390240	 41.757270	-1.961229	-4.737077	-0.186322	 0.050890	 2.057071	 3.395033	-19.295510	-2.327538	 4.907212	 0.895469	 12.542230	 22.956030	-5.173336	-8.501073	 13.148790	-0.528439
